<svg xmlns="http://www.w3.org/2000/svg" viewBox="0 0 48 48" width="48" height="48">
  <defs>
    <linearGradient id="primaryGradient" x1="0%" y1="0%" x2="100%" y2="100%">
      <stop offset="0%" style="stop-color:#667eea;stop-opacity:1" />
      <stop offset="100%" style="stop-color:#764ba2;stop-opacity:1" />
    </linearGradient>
  </defs>
  <!-- Rounded rectangle background with primary gradient -->
  <rect width="48" height="48" rx="10" fill="url(#primaryGradient)"/>
  <!-- Taskly logo in white (thicker version), centered -->
  <g transform="translate(24, 24)">
    <g transform="scale(0.048, 0.048)">
      <g transform="translate(-480, 480)">
        <path d="M76.41-114.5v-87.41H234.5v-154.5h-78.09v-87.18h82.09q12.48-76.19 67.93-130.81 55.46-54.62 131.66-67.1V-851H725.5v163.59H521.91v45.88q76.2 12.51 131.66 67.13 55.45 54.62 67.93 130.81h82.09v87.18H725.5v154.5h158.09v87.41H76.41Zm245.5-87.41h114.5v-154.5h-114.5v154.5Zm201.68 0h114.5v-154.5h-114.5v154.5ZM328.63-443.59h302.74q-14.48-51.08-56.64-82.79-42.16-31.71-94.73-31.71-52.57 0-94.73 31.71-42.16 31.71-56.64 82.79Zm151.37 0Z" fill="white"/>
      </g>
    </g>
  </g>
</svg>
